<svg id="Layer_1" data-name="Layer 1" xmlns="http://www.w3.org/2000/svg" xmlns:xlink="http://www.w3.org/1999/xlink" viewBox="0 0 670.89 459.94"><defs><style>.cls-1{fill:none;}.cls-2{fill:#e8effc;}.cls-23,.cls-3{fill:#b1bcc2;}.cls-26,.cls-35,.cls-4,.cls-5{isolation:isolate;}.cls-26,.cls-5{font-size:12px;font-family:GoogleSans-Regular, Google Sans;}.cls-26,.cls-35,.cls-5{fill:#3d4043;}.cls-6{letter-spacing:-0.03em;}.cls-7{letter-spacing:-0.01em;}.cls-8{letter-spacing:0em;}.cls-9{letter-spacing:0em;}.cls-10{letter-spacing:0em;}.cls-11{letter-spacing:0em;}.cls-12{letter-spacing:-0.02em;}.cls-13{letter-spacing:0.01em;}.cls-14{letter-spacing:0.01em;}.cls-15,.cls-26{letter-spacing:-0.02em;}.cls-16{letter-spacing:-0.01em;}.cls-17{letter-spacing:-0.01em;}.cls-18{letter-spacing:-0.03em;}.cls-19{letter-spacing:-0.02em;}.cls-20{letter-spacing:-0.02em;}.cls-21{letter-spacing:-0.01em;}.cls-22{letter-spacing:-0.03em;}.cls-23{fill-rule:evenodd;}.cls-24{letter-spacing:-0.02em;}.cls-25{fill:#eaf0fc;}.cls-27{fill:#5284eb;}.cls-28{letter-spacing:-0.06em;}.cls-29{fill:#fff;}.cls-30{clip-path:url(#clip-path);}.cls-31{fill:#d75040;}.cls-32{fill:#58a45c;}.cls-33{fill:#f1bd42;}.cls-34{clip-path:url(#clip-path-2);}.cls-35{font-size:14px;font-family:GoogleSans-Medium, Google Sans;font-weight:500;}.cls-36{letter-spacing:-0.01em;}.cls-37{letter-spacing:-0.02em;}.cls-38{letter-spacing:0em;}.cls-39{letter-spacing:-0.01em;}.cls-40{letter-spacing:-0.03em;}.cls-41{letter-spacing:-0.02em;}.cls-42{letter-spacing:0em;}.cls-43{letter-spacing:0em;}</style><clipPath id="clip-path"><rect class="cls-1" x="588.68" y="90.62" width="32" height="27.43"/></clipPath><clipPath id="clip-path-2"><rect class="cls-1" x="588.87" y="355.93" width="32" height="28.63"/></clipPath></defs><rect class="cls-2" x="172.17" y="176.56" width="330.75" height="163.87" rx="5"/><path class="cls-3" d="M212.51,233v2.47H166.07l-.94.07-.95.13-.93.2c-.31.07-.62.16-.92.25l-.92.31c-.3.11-.6.24-.9.37l-.88.42-.86.49-.84.54c-.28.18-.55.38-.82.59l-.79.64c-.26.22-.51.45-.76.69l-.74.74c-.24.25-.47.51-.7.78l-.67.83q-.33.44-.63.87l-.6.91c-.19.31-.38.63-.56,1l-.52,1c-.16.33-.32.67-.47,1l-.44,1c-.14.35-.26.71-.39,1.07l-.34,1.09a11.42,11.42,0,0,0-.3,1.11l-.24,1.13c-.08.38-.15.76-.21,1.15L148.6,255c0,.39-.08.78-.1,1.17l-.06,1.17v91.39q0,.63-.06,1.29v.07h0l-.1,1.16h0v.06a9.47,9.47,0,0,1-.16,1.29v.06h0l-.2,1.14h0v.06c-.08.42-.17.84-.27,1.25v.12h0l-.29,1.11h0v.06c-.11.41-.24.82-.37,1.22h0l-.38,1.07h0v.06c-.15.39-.31.77-.47,1.15V360h0l-.47,1h0v0c-.18.37-.37.74-.56,1.1v.05h0l-.55,1h0v.05c-.21.34-.43.68-.66,1v0h0l-.63.87h0c-.24.32-.49.63-.74.93h0l-.69.79h0c-.26.29-.53.56-.81.83h0l-.76.7h0l-.87.72h0l-.81.59h-.05c-.3.21-.61.42-.93.61h0l-.86.49h0c-.32.17-.65.33-1,.48h-.05l-.9.37h0c-.33.13-.67.24-1,.35h0l-.93.26h0c-.34.09-.69.17-1,.23h0l-.94.14h-.83l-1,.09-1,.06h-12v-2.47h13a3.82,3.82,0,0,0,.95-.08l.94-.14.93-.21.92-.26c.31-.1.61-.2.91-.32l.9-.38c.3-.14.59-.28.88-.44l.86-.49c.29-.18.57-.36.84-.55l.82-.6c.26-.21.53-.43.78-.66l.76-.7c.25-.24.49-.49.73-.75l.7-.79.66-.84.63-.88c.2-.3.4-.6.59-.91l.55-1,.51-1,.47-1,.42-1,.38-1.07c.12-.36.23-.73.33-1.1l.29-1.11c.09-.38.17-.75.24-1.14l.19-1.14c.06-.38.11-.77.15-1.16l.09-1.16a9.16,9.16,0,0,1,.05-1.17v-91h0l.06-1.17h0V256a7,7,0,0,1,.12-1.29v-.06h0l.16-1.15h0v-.06c.06-.43.14-.85.22-1.27v-.06h0l.25-1.13h0v-.06c.1-.42.21-.84.33-1.24v-.06h0l.35-1.1h0v0c.13-.41.28-.8.43-1.19v-.06h0l.43-1h0v-.06c.17-.38.34-.75.53-1.12V245h0l.51-1h0V244c.2-.36.41-.71.62-1h0l.59-.91h0v-.05c.23-.33.47-.65.71-1h0l.67-.83h0c.25-.3.51-.59.78-.88h0l.74-.74h0c.28-.26.56-.52.85-.76h0l.79-.65h0c.3-.23.6-.45.91-.66h0l.84-.53h.05l.95-.53h.05l.88-.43h0c.33-.15.66-.29,1-.41h0l.92-.31h.05l1-.28h0l.93-.19h.05l1-.15h0l1-.08h.8Z"/><path class="cls-3" d="M212.58,236v-2.47H166.14l-.94-.07-.95-.13-.93-.2c-.31-.07-.62-.16-.92-.25l-.92-.31c-.3-.11-.6-.24-.9-.37l-.88-.42-.86-.49-.84-.54c-.28-.18-.55-.38-.82-.59l-.79-.64c-.26-.22-.51-.45-.76-.69l-.74-.74c-.24-.25-.47-.51-.7-.78l-.67-.83-.63-.87-.6-.91c-.19-.31-.38-.63-.56-1l-.52-1c-.16-.33-.32-.67-.47-1l-.44-1c-.14-.35-.26-.71-.39-1.07l-.34-1.09q-.18-.57-.3-1.11l-.24-1.13c-.08-.38-.15-.76-.21-1.15l-.15-1.15c0-.39-.08-.78-.1-1.17l-.06-1.17V120.25q0-.65-.06-1.29v-.07h0l-.1-1.16h0v-.06a9.47,9.47,0,0,0-.16-1.29v-.06h0l-.2-1.14h0v-.06c-.08-.42-.17-.84-.27-1.25v-.12h0l-.29-1.11h0v-.06c-.11-.41-.24-.82-.37-1.22h0l-.38-1.07h0v-.06c-.15-.39-.31-.77-.47-1.15V109h0l-.47-1h0v0c-.18-.37-.37-.74-.56-1.1v-.05h0l-.55-1h0v0c-.21-.35-.43-.68-.66-1v0h0l-.63-.87h0c-.24-.32-.49-.63-.74-.93h0l-.69-.79h0c-.26-.29-.53-.56-.81-.83h0l-.76-.7h0l-.87-.72h0l-.81-.59h0c-.3-.21-.61-.42-.93-.61h0l-.86-.49h0c-.32-.17-.65-.33-1-.48h0l-.9-.37h0c-.33-.13-.67-.24-1-.35h0l-.93-.26h0c-.34-.09-.69-.17-1-.23h0l-.94-.14h-.83q-.53-.06-1-.09l-1-.06h-12v2.47h13a3.82,3.82,0,0,1,.95.08l.94.14.93.21.92.26c.31.1.61.2.91.32l.9.38c.3.14.59.28.88.44l.86.49c.29.18.57.36.84.55l.82.6c.26.21.53.43.78.66l.76.7c.25.24.49.49.73.75l.7.79q.33.39.66.84l.63.88c.2.3.4.6.59.91l.55,1,.51,1,.47,1,.42,1,.38,1.07c.12.36.23.73.33,1.1l.29,1.11c.09.38.17.75.24,1.14l.19,1.14c.06.38.11.77.15,1.16l.09,1.16a9.16,9.16,0,0,0,.05,1.17v91h0l.06,1.17h0V213a7.2,7.2,0,0,0,.12,1.29v.06h0l.16,1.15h0v.06c.06.43.14.85.22,1.27v.06h0l.25,1.13h0v.06c.1.42.21.84.33,1.24v.06h0l.35,1.1h0v0c.13.41.28.8.43,1.19v.06h0l.43,1h0v.06c.17.38.34.75.53,1.12V224h0l.51,1h0v.05c.2.36.41.71.62,1h0l.59.91h0v.05c.23.33.47.65.71,1h0l.67.83h0c.25.3.51.59.78.88h0l.74.74h0c.28.26.56.52.85.76h0l.79.65h0c.3.23.6.45.91.66h0l.84.53h.05l.95.53h.05l.88.43h0c.33.15.66.29,1,.41h.05l.92.31h.05l1,.28h0l.93.19h0l1,.15h.05l.95.08h.8Z"/><g class="cls-4"><text class="cls-5" transform="translate(227.68 288.41)">P<tspan class="cls-6" x="6.91" y="0">r</tspan><tspan class="cls-7" x="11.05" y="0">o</tspan><tspan class="cls-8" x="18.02" y="0">x</tspan><tspan class="cls-9" x="23.87" y="0">i</tspan><tspan class="cls-10" x="26.52" y="0">e</tspan><tspan class="cls-11" x="33.34" y="0">s and</tspan></text><text class="cls-5" transform="translate(207.6 302.81)"><tspan class="cls-9">p</tspan><tspan class="cls-6" x="7.12" y="0">r</tspan><tspan class="cls-7" x="11.26" y="0">o</tspan><tspan class="cls-12" x="18.23" y="0">t</tspan><tspan class="cls-13" x="22.36" y="0">e</tspan><tspan class="cls-9" x="29.17" y="0">c</tspan><tspan class="cls-14" x="35.66" y="0">t</tspan><tspan x="40.18" y="0">s </tspan><tspan class="cls-10" x="48.64" y="0">t</tspan><tspan x="53.09" y="0">he t</tspan><tspan class="cls-15" x="73.79" y="0">r</tspan><tspan class="cls-16" x="78.05" y="0">a</tspan><tspan class="cls-17" x="84.3" y="0">ffi</tspan><tspan x="95.16" y="0">c</tspan></text><text class="cls-5" transform="translate(212.43 317.21)">f<tspan class="cls-18" x="4.55" y="0">r</tspan><tspan class="cls-16" x="8.69" y="0">o</tspan><tspan class="cls-11" x="15.72" y="0">m </tspan><tspan class="cls-13" x="29.02" y="0">t</tspan><tspan class="cls-8" x="33.47" y="0">he i</tspan><tspan class="cls-19" x="52.49" y="0">n</tspan><tspan class="cls-12" x="58.92" y="0">t</tspan><tspan x="63.05" y="0">ern</tspan><tspan class="cls-20" x="81.04" y="0">e</tspan><tspan x="87.61" y="0">t</tspan></text></g><g class="cls-4"><text class="cls-5" transform="translate(353.54 287.41)"><tspan class="cls-21">En</tspan><tspan class="cls-22" x="13.1" y="0">f</tspan><tspan class="cls-16" x="17.28" y="0">o</tspan><tspan class="cls-18" x="24.31" y="0">r</tspan><tspan class="cls-17" x="28.45" y="0">c</tspan><tspan class="cls-13" x="34.94" y="0">e</tspan><tspan x="41.76" y="0">s </tspan><tspan class="cls-17" x="50.22" y="0">acc</tspan><tspan class="cls-13" x="69.52" y="0">e</tspan><tspan x="76.33" y="0">ss p</tspan><tspan class="cls-17" x="97.64" y="0">o</tspan><tspan class="cls-11" x="104.73" y="0">l</tspan><tspan class="cls-17" x="107.27" y="0">i</tspan><tspan class="cls-11" x="109.92" y="0">c</tspan><tspan class="cls-17" x="116.47" y="0">i</tspan><tspan class="cls-13" x="119.12" y="0">e</tspan><tspan x="125.94" y="0">s</tspan></text><text class="cls-5" transform="translate(367.53 301.81)"><tspan class="cls-22">f</tspan><tspan class="cls-16" x="4.18" y="0">o</tspan><tspan x="11.21" y="0">r </tspan><tspan class="cls-10" x="18.49" y="0">e</tspan><tspan class="cls-17" x="25.31" y="0">a</tspan><tspan class="cls-11" x="31.62" y="0">ch a</tspan><tspan class="cls-21" x="54.1" y="0">p</tspan><tspan x="61.15" y="0">p b</tspan><tspan class="cls-17" x="78.33" y="0">a</tspan><tspan class="cls-13" x="84.65" y="0">se</tspan><tspan x="97.2" y="0">d</tspan></text><text class="cls-5" transform="translate(357.27 316.21)"><tspan class="cls-21">o</tspan><tspan class="cls-8" x="7.03" y="0">n </tspan><tspan class="cls-17" x="16.55" y="0">id</tspan><tspan x="26.36" y="0">e</tspan><tspan class="cls-19" x="33.12" y="0">n</tspan><tspan class="cls-10" x="39.55" y="0">t</tspan><tspan class="cls-9" x="44" y="0">i</tspan><tspan class="cls-10" x="46.66" y="0">t</tspan><tspan x="51.11" y="0">y and </tspan><tspan class="cls-9" x="83.19" y="0">c</tspan><tspan class="cls-16" x="89.69" y="0">o</tspan><tspan class="cls-19" x="96.72" y="0">n</tspan><tspan class="cls-12" x="103.15" y="0">t</tspan><tspan class="cls-21" x="107.28" y="0">e</tspan><tspan class="cls-8" x="113.92" y="0">xt</tspan></text></g><polygon class="cls-23" points="217.48 234.26 211.02 240.03 211.02 228.59 217.48 234.26"/><text class="cls-5" transform="translate(44.37 159.34)"><tspan class="cls-21">E</tspan><tspan x="6.49" y="0">m</tspan><tspan class="cls-21" x="17" y="0">p</tspan><tspan class="cls-9" x="24.06" y="0">l</tspan><tspan class="cls-24" x="26.53" y="0">oy</tspan><tspan class="cls-13" x="39.4" y="0">ee</tspan><tspan class="cls-11" x="53.03" y="0">s</tspan></text><rect class="cls-1" x="37.94" y="68.96" width="71.47" height="70.74"/><rect class="cls-1" x="37.68" y="68.33" width="72" height="72"/><path class="cls-25" d="M73.3,68.33h.75a36,36,0,0,1,36,36h0a36,36,0,0,1-36,36H73.3a36,36,0,0,1-36-36h0A36,36,0,0,1,73.3,68.33Z"/><text class="cls-26" transform="translate(40.9 290.34)">C<tspan class="cls-16" x="8.65" y="0">o</tspan><tspan class="cls-19" x="15.68" y="0">n</tspan><tspan class="cls-8" x="22.12" y="0">t</tspan><tspan x="26.51" y="0">r</tspan><tspan class="cls-17" x="30.77" y="0">ac</tspan><tspan class="cls-12" x="43.57" y="0">t</tspan><tspan class="cls-21" x="47.7" y="0">o</tspan><tspan class="cls-24" x="54.73" y="0">r</tspan><tspan class="cls-11" x="58.99" y="0">s</tspan></text><rect class="cls-1" x="37.94" y="201.96" width="71.47" height="70.74"/><rect class="cls-1" x="37.68" y="201.33" width="72" height="72"/><path class="cls-25" d="M73.3,201.33h.75a36,36,0,0,1,36,36h0a36,36,0,0,1-36,36H73.3a36,36,0,0,1-36-36h0A36,36,0,0,1,73.3,201.33Z"/><path class="cls-27" d="M87,244H81.68v-9.33H87Zm1.33-12h-8A1.32,1.32,0,0,0,79,233.33v13.34A1.34,1.34,0,0,0,80.34,248h8a1.35,1.35,0,0,0,1.34-1.33V233.33A1.34,1.34,0,0,0,88.34,232ZM63,229.33H87v-2.66H63a2.65,2.65,0,0,0-2.67,2.66V244H57.68v4H76.34v-4H63Z"/><text class="cls-5" transform="translate(51.11 424.34)"><tspan class="cls-24">P</tspan><tspan x="6.67" y="0">a</tspan><tspan class="cls-13" x="13.04" y="0">rt</tspan><tspan class="cls-8" x="22.04" y="0">ne</tspan><tspan class="cls-15" x="35.53" y="0">r</tspan><tspan x="39.79" y="0">s</tspan></text><rect class="cls-1" x="37.94" y="334.96" width="71.47" height="70.74"/><rect class="cls-1" x="37.68" y="334.33" width="72" height="72"/><path class="cls-25" d="M73.3,334.33h.75a36,36,0,0,1,36,36h0a36,36,0,0,1-36,36H73.3a36,36,0,0,1-36-36h0A36,36,0,0,1,73.3,334.33Z"/><rect class="cls-1" x="568.94" y="68.96" width="71.47" height="70.74"/><rect class="cls-1" x="568.68" y="68.33" width="72" height="72"/><path class="cls-25" d="M604.3,68.33h.75a36,36,0,0,1,36,36h0a36,36,0,0,1-36,36h-.75a36,36,0,0,1-36-36h0A36,36,0,0,1,604.3,68.33Z"/><g class="cls-4"><text class="cls-5" transform="translate(558.53 290.34)"><tspan class="cls-28">W</tspan><tspan x="10.64" y="0">eb-b</tspan><tspan class="cls-17" x="37.14" y="0">a</tspan><tspan class="cls-13" x="43.45" y="0">se</tspan><tspan class="cls-11" x="56" y="0">d a</tspan><tspan class="cls-16" x="72.38" y="0">p</tspan><tspan class="cls-9" x="79.44" y="0">p</tspan><tspan x="86.55" y="0">s</tspan></text><text class="cls-5" transform="translate(562.6 304.74)"><tspan class="cls-21">o</tspan><tspan class="cls-8" x="7.03" y="0">n </tspan><tspan class="cls-20" x="16.55" y="0">o</tspan><tspan class="cls-13" x="23.52" y="0">t</tspan><tspan class="cls-8" x="27.97" y="0">her c</tspan><tspan class="cls-17" x="55.33" y="0">loud</tspan><tspan x="78.73" y="0">s</tspan></text></g><rect class="cls-1" x="568.94" y="201.96" width="71.47" height="70.74"/><rect class="cls-1" x="568.68" y="201.33" width="72" height="72"/><path class="cls-25" d="M604.3,201.33h.75a36,36,0,0,1,36,36h0a36,36,0,0,1-36,36h-.75a36,36,0,0,1-36-36h0A36,36,0,0,1,604.3,201.33Z"/><g class="cls-4"><text class="cls-5" transform="translate(558.53 424.34)"><tspan class="cls-28">W</tspan><tspan x="10.64" y="0">eb-b</tspan><tspan class="cls-17" x="37.14" y="0">a</tspan><tspan class="cls-13" x="43.45" y="0">se</tspan><tspan class="cls-11" x="56" y="0">d a</tspan><tspan class="cls-16" x="72.38" y="0">p</tspan><tspan class="cls-9" x="79.44" y="0">p</tspan><tspan x="86.55" y="0">s</tspan></text><text class="cls-5" transform="translate(570.58 438.74)"><tspan class="cls-21">o</tspan><tspan class="cls-8" x="7.03" y="0">n-</tspan><tspan class="cls-9" x="19.06" y="0">p</tspan><tspan class="cls-18" x="26.17" y="0">r</tspan><tspan x="30.31" y="0">emi</tspan><tspan class="cls-13" x="50.29" y="0">se</tspan><tspan x="62.84" y="0">s</tspan></text></g><rect class="cls-1" x="569.13" y="334.88" width="71.47" height="70.74"/><rect class="cls-1" x="568.87" y="334.24" width="72" height="72"/><path class="cls-25" d="M604.49,334.24h.75a36,36,0,0,1,36,36h0a36,36,0,0,1-36,36h-.75a36,36,0,0,1-36-36h0A36,36,0,0,1,604.49,334.24Z"/><circle class="cls-27" cx="258.75" cy="234.33" r="36"/><path class="cls-29" d="M258.75,218.33a16,16,0,1,0,16,16,16,16,0,0,0-16-16Zm-12.8,16a12.33,12.33,0,0,1,.34-2.84l7.64,7.64v1.6a3.21,3.21,0,0,0,3.2,3.2V247A12.82,12.82,0,0,1,246,234.33ZM268.17,243a3.2,3.2,0,0,0-3-2.24h-1.6v-4.8a1.6,1.6,0,0,0-1.6-1.6h-9.6v-3.2h3.2a1.6,1.6,0,0,0,1.6-1.6h0v-3.2h3.2a3.22,3.22,0,0,0,3.2-3.2v-.65A12.74,12.74,0,0,1,270.68,239a13,13,0,0,1-2.47,3.93Z"/><circle class="cls-27" cx="420.02" cy="234.33" r="36"/><path class="cls-29" d="M430.2,221.25h-6.1a4.35,4.35,0,0,0-8.21,0h-6.08a2.9,2.9,0,0,0-2.9,2.91v23.27a2.91,2.91,0,0,0,2.9,2.91H430.2a2.93,2.93,0,0,0,2.91-2.91V224.15A2.92,2.92,0,0,0,430.2,221.25Zm-10.18,0a1.46,1.46,0,1,1-1.46,1.46h0A1.46,1.46,0,0,1,420,221.25Zm10.18,26.18H409.83V224.15h2.91v4.37h14.55v-4.37h2.91Z"/><polygon class="cls-29" points="417.64 238.46 415.75 236.57 413.88 238.46 417.64 242.22 425.18 234.67 423.29 232.78 417.64 238.46"/><g class="cls-30"><path class="cls-31" d="M608.84,98.83h1l2.65-2.65.13-1.12a11.9,11.9,0,0,0-19.42,5.79,1.35,1.35,0,0,1,.91,0l5.3-.87s.27-.46.4-.43a6.62,6.62,0,0,1,9.06-.69Z"/><path class="cls-27" d="M616.19,100.87a12.05,12.05,0,0,0-3.6-5.79l-3.76,3.75A6.61,6.61,0,0,1,611.3,104v.66a3.31,3.31,0,0,1,0,6.62h-6.62l-.67.67v4l.67.65h6.62a8.61,8.61,0,0,0,4.89-15.7Z"/><path class="cls-32" d="M598.1,116.57h6.62v-5.32H598.1a3.32,3.32,0,0,1-1.36-.29l-1,.29-2.64,2.67-.23.9A8.58,8.58,0,0,0,598.1,116.57Z"/><path class="cls-33" d="M598.1,99.35a8.61,8.61,0,0,0-5.2,15.47l3.84-3.84a3.31,3.31,0,1,1,2.72-6,3.35,3.35,0,0,1,1.66,1.66l3.84-3.84A8.58,8.58,0,0,0,598.1,99.35Z"/></g><g class="cls-4"><text class="cls-5" transform="translate(561.6 158.93)"><tspan class="cls-28">W</tspan><tspan x="10.64" y="0">eb-b</tspan><tspan class="cls-17" x="37.14" y="0">a</tspan><tspan class="cls-13" x="43.45" y="0">se</tspan><tspan class="cls-11" x="56" y="0">d a</tspan><tspan class="cls-16" x="72.38" y="0">p</tspan><tspan class="cls-9" x="79.44" y="0">p</tspan><tspan x="86.55" y="0">s</tspan></text><text class="cls-5" transform="translate(561.87 173.33)"><tspan class="cls-21">o</tspan><tspan class="cls-8" x="7.03" y="0">n</tspan><tspan class="cls-15" x="13.76" y="0"> </tspan><tspan class="cls-17" x="16.31" y="0">G</tspan><tspan x="26" y="0">oog</tspan><tspan class="cls-17" x="47.47" y="0">l</tspan><tspan x="49.94" y="0">e</tspan><tspan class="cls-24" x="56.7" y="0"> </tspan><tspan class="cls-16" x="59.24" y="0">C</tspan><tspan class="cls-9" x="68.02" y="0">lou</tspan><tspan x="84.25" y="0">d</tspan></text></g><g class="cls-34"><path class="cls-27" d="M613.75,374.25h-3v3h3Zm0-6.06h-3v3h3Zm3,12.12H604.66v-3h3v-3h-3v-3h3v-3h-3v-3h12.13Zm-15.16-18.18h-3v-3h3Zm0,6.06h-3v-3h3Zm0,6.06h-3v-3h3Zm0,6.06h-3v-3h3Zm-6.07-18.18h-3v-3h3Zm0,6.06h-3v-3h3Zm0,6.06h-3v-3h3Zm0,6.06h-3v-3h3Zm9.1-18.18v-6.07H589.5v27.29h30.32V362.08Z"/></g><path class="cls-27" d="M614,234.83a9.52,9.52,0,0,0-17.78-2.58,7.62,7.62,0,0,0,.83,15.19h16.5a6.33,6.33,0,0,0,.45-12.65Z"/><rect class="cls-3" x="301.02" y="231.98" width="76.16" height="2"/><polygon class="cls-23" points="378.89 232.93 372.43 238.7 372.43 227.26 378.89 232.93"/><text class="cls-35" transform="translate(245.34 160.66)">B<tspan class="cls-36" x="8.76" y="0">e</tspan><tspan class="cls-37" x="16.67" y="0">y</tspan><tspan class="cls-16" x="24.05" y="0">o</tspan><tspan class="cls-38" x="32.38" y="0">nd</tspan><tspan class="cls-24" x="49.13" y="0">C</tspan><tspan class="cls-36" x="59.28" y="0">o</tspan><tspan x="67.61" y="0">rp </tspan><tspan class="cls-16" x="85.05" y="0">R</tspan><tspan class="cls-38" x="93.45" y="0">em</tspan><tspan class="cls-39" x="114" y="0">o</tspan><tspan class="cls-37" x="122.26" y="0">t</tspan><tspan x="127.47" y="0">e</tspan><tspan class="cls-40" x="135.52" y="0"> </tspan><tspan class="cls-41" x="138.36" y="0">A</tspan><tspan class="cls-42" x="147.9" y="0">cc</tspan><tspan class="cls-43" x="163.41" y="0">e</tspan><tspan x="171.53" y="0">ss</tspan></text><polygon class="cls-23" points="565.83 100.28 559.37 106.06 559.37 94.61 565.83 100.28"/><polygon class="cls-23" points="565.83 374.24 559.37 380.02 559.37 368.57 565.83 374.24"/><g class="cls-4"><text class="cls-5" transform="translate(17.07 28.47)"><tspan class="cls-20">A</tspan><tspan class="cls-9" x="7.86" y="0">cc</tspan><tspan class="cls-13" x="20.84" y="0">e</tspan><tspan x="27.66" y="0">ss a</tspan><tspan class="cls-16" x="48.17" y="0">p</tspan><tspan class="cls-9" x="55.22" y="0">p</tspan><tspan x="62.34" y="0">s n</tspan><tspan class="cls-16" x="77.53" y="0">o</tspan><tspan x="84.56" y="0">r</tspan><tspan class="cls-9" x="89.06" y="0">m</tspan><tspan class="cls-8" x="99.52" y="0">ally</tspan></text><text class="cls-5" transform="translate(25.67 42.87)"><tspan class="cls-10">t</tspan><tspan x="4.45" y="0">h</tspan><tspan class="cls-18" x="11.22" y="0">r</tspan><tspan class="cls-17" x="15.36" y="0">ou</tspan><tspan class="cls-8" x="29.12" y="0">gh a </tspan><tspan class="cls-21" x="55" y="0">b</tspan><tspan class="cls-18" x="62.1" y="0">r</tspan><tspan class="cls-21" x="66.24" y="0">o</tspan><tspan x="73.27" y="0">w</tspan><tspan class="cls-13" x="82.6" y="0">s</tspan><tspan x="88.33" y="0">er</tspan></text><text class="cls-5" transform="translate(37.12 57.27)">(e.g.,<tspan class="cls-24" x="26.4" y="0"> </tspan><tspan class="cls-16" x="28.94" y="0">C</tspan><tspan x="37.72" y="0">h</tspan><tspan class="cls-18" x="44.48" y="0">r</tspan><tspan class="cls-16" x="48.62" y="0">o</tspan><tspan class="cls-11" x="55.66" y="0">me)</tspan></text></g><path class="cls-27" d="M87,111H81.68v-9.33H87Zm1.33-12h-8A1.32,1.32,0,0,0,79,100.33v13.34A1.34,1.34,0,0,0,80.34,115h8a1.35,1.35,0,0,0,1.34-1.33V100.33A1.34,1.34,0,0,0,88.34,99ZM63,96.33H87V93.67H63a2.65,2.65,0,0,0-2.67,2.66V111H57.68v4H76.34v-4H63Z"/><path class="cls-27" d="M87,377H81.68v-9.33H87Zm1.33-12h-8A1.32,1.32,0,0,0,79,366.33v13.34A1.34,1.34,0,0,0,80.34,381h8a1.35,1.35,0,0,0,1.34-1.33V366.33A1.34,1.34,0,0,0,88.34,365ZM63,362.33H87v-2.66H63a2.65,2.65,0,0,0-2.67,2.66V377H57.68v4H76.34v-4H63Z"/><path class="cls-3" d="M463.93,238.88v-2.47h46.44l.94-.07.95-.13.93-.2c.31-.07.62-.16.92-.25l.92-.31c.3-.11.6-.24.9-.37l.88-.42.86-.49.84-.54c.28-.18.55-.38.82-.59l.79-.64c.26-.22.51-.45.76-.69l.74-.74c.24-.25.47-.51.7-.78l.67-.83.63-.87.6-.91c.19-.31.38-.63.56-1l.52-1c.16-.33.32-.67.47-1l.44-1c.14-.35.26-.71.39-1.07l.34-1.09q.16-.57.3-1.11l.24-1.13c.08-.38.15-.76.21-1.15l.15-1.15c0-.39.08-.78.1-1.17l.06-1.17V123.15q0-.65.06-1.29v-.07h0l.1-1.16h0v-.06a9.47,9.47,0,0,1,.16-1.29v-.06h0l.2-1.14h0V118c.08-.42.17-.84.27-1.25v-.12h0l.29-1.11h0v-.06c.11-.41.24-.82.37-1.22h0l.38-1.07h0v-.06c.15-.39.31-.77.47-1.15v-.06h0l.47-1h0v0c.18-.37.37-.74.56-1.1v0h0l.55-1h0v0a9.6,9.6,0,0,1,.66-1v0h0l.63-.87h0c.24-.32.49-.63.74-.93h0l.69-.79h0c.26-.29.53-.56.81-.83h0l.76-.7h0l.87-.72h0l.81-.59h0c.3-.21.61-.42.93-.61h0l.86-.49h0c.32-.17.65-.33,1-.48h0l.9-.37h0c.33-.13.67-.24,1-.35h0l.93-.26h0c.34-.09.69-.17,1-.23h0l.94-.14h.83q.51-.06,1-.09l1-.06h12v2.47h-13a3.82,3.82,0,0,0-.95.08l-.94.14-.93.21-.92.26c-.31.1-.61.2-.91.32l-.9.38c-.3.14-.59.28-.88.44l-.86.49c-.29.18-.57.36-.84.55l-.82.6c-.26.21-.53.43-.78.66l-.76.7c-.25.24-.49.49-.73.75l-.7.79a9.41,9.41,0,0,0-.66.84l-.63.88c-.2.3-.4.6-.59.91l-.55,1-.51,1-.47,1-.42,1-.38,1.07c-.12.36-.23.73-.33,1.1l-.29,1.11c-.09.38-.17.75-.24,1.14l-.19,1.14c-.06.38-.11.77-.15,1.16l-.09,1.16a9.16,9.16,0,0,1-.05,1.17v91h0l-.06,1.17h0v.06a7.2,7.2,0,0,1-.12,1.29v.06h0l-.16,1.15h0v.06c-.06.43-.14.85-.22,1.27v.06h0l-.25,1.13h0V221c-.1.42-.21.84-.33,1.24v.06h0l-.35,1.1h0v0c-.13.41-.28.8-.43,1.19v.06h0l-.43,1h0v.06c-.17.38-.34.75-.53,1.12v.06h0l-.51,1h0v0c-.2.36-.41.71-.62,1.05h0l-.59.91h0V230c-.23.33-.47.65-.71,1h0l-.67.83h0c-.25.3-.51.59-.78.88h0l-.74.74h0c-.28.26-.56.52-.85.76h0l-.79.65h0c-.3.23-.6.45-.91.66h0L519,236h0l-1,.53h0l-.88.43h0c-.33.15-.66.29-1,.41h-.05l-.92.31h0l-1,.28h0l-.93.19h0l-1,.15h-.05l-.95.08h-.8Z"/><path class="cls-3" d="M503.93,236.42v2h6.44l.94.07.95.13.93.2c.31.07.62.16.92.25l.92.31c.3.11.6.24.9.37l.88.42.86.49.84.54c.28.18.55.38.82.59l.79.64c.26.22.51.45.76.69l.74.74c.24.25.47.51.7.78l.67.83.63.87.6.91c.19.31.38.63.56,1l.52,1c.16.33.32.67.47,1l.44,1c.14.35.26.71.39,1.07l.34,1.09q.16.57.3,1.11l.24,1.13c.08.38.15.76.21,1.15l.15,1.15c0,.39.08.78.1,1.17l.06,1.17v91.39q0,.64.06,1.29V353h0l.1,1.16h0v.06a9.47,9.47,0,0,0,.16,1.29v.06h0l.2,1.14h0v.06c.08.42.17.84.27,1.25v.12h0l.29,1.11h0v.06c.11.41.24.82.37,1.22h0l.38,1.07h0v.06c.15.39.31.77.47,1.15v.06h0l.47,1h0v.05c.18.37.37.74.56,1.1v.05h0l.55,1h0v.05a9.6,9.6,0,0,0,.66,1v.05h0l.63.87h0c.24.32.49.63.74.93h0l.69.79h0c.26.29.53.56.81.83h0l.76.7h0l.87.72h0l.81.59h0c.3.21.61.42.93.61h0l.86.49h0c.32.17.65.33,1,.48h0l.9.37h0c.33.13.67.24,1,.35h0l.93.26h0c.34.09.69.17,1,.23h0l.94.14h.83q.51.06,1,.09l1,.06h12V373.2h-13a3.82,3.82,0,0,1-.95-.08l-.94-.14-.93-.21-.92-.26c-.31-.1-.61-.2-.91-.32l-.9-.38c-.3-.14-.59-.28-.88-.44l-.86-.49c-.29-.18-.57-.36-.84-.55l-.82-.6c-.26-.21-.53-.43-.78-.66l-.76-.7c-.25-.24-.49-.49-.73-.75l-.7-.79a9.41,9.41,0,0,1-.66-.84l-.63-.88c-.2-.3-.4-.6-.59-.91l-.55-1-.51-1-.47-1-.42-1-.38-1.07c-.12-.36-.23-.73-.33-1.1l-.29-1.11c-.09-.38-.17-.75-.24-1.14l-.19-1.14c-.06-.38-.11-.77-.15-1.16l-.09-1.16a9.16,9.16,0,0,0-.05-1.17v-91h0l-.06-1.17h0v-.06a7.2,7.2,0,0,0-.12-1.29v-.06h0l-.16-1.15h0v-.06c-.06-.43-.14-.85-.22-1.27V255h0l-.25-1.13h0v-.06c-.1-.42-.21-.84-.33-1.24v-.06h0l-.35-1.1h0v0c-.13-.41-.28-.8-.43-1.19v-.06h0l-.43-1h0v-.06c-.17-.38-.34-.75-.53-1.12v-.06h0l-.51-1h0v0c-.2-.36-.41-.71-.62-1.05h0l-.59-.91h0v-.05c-.23-.33-.47-.65-.71-1h0l-.67-.83h0c-.25-.3-.51-.59-.78-.88h0l-.74-.74h0c-.28-.26-.56-.52-.85-.76h0l-.79-.65h0c-.3-.23-.6-.45-.91-.66h0l-.84-.53h0l-1-.53h0l-.88-.43h0c-.33-.15-.66-.29-1-.41h-.05l-.92-.31h0l-1-.28h0l-.93-.19h0l-1-.15h-.05l-.95-.08h-.8Z"/></svg>